REM DIRINDEX 1\2,1\3,1\4,1\5
REM DIRNAME "folder01","folder02","folder03","folder04","folder05"
TITLE ""
FILE "P1Q_t_0050-0059.mp3" MP3
  TRACK 01 AUDIO
    TITLE "3:cjc173_1058"
    INDEX 01 00:00:00
  TRACK 02 AUDIO
    TITLE "0:"
    INDEX 01 00:01:16
  TRACK 03 AUDIO
    TITLE "4:cjc173_1059"
    INDEX 01 00:01:39
  TRACK 04 AUDIO
    TITLE "0:"
    INDEX 01 00:05:02
  TRACK 05 AUDIO
    TITLE "5:cjc173_1060"
    INDEX 01 00:05:21
  TRACK 06 AUDIO
    TITLE "0:"
    INDEX 01 00:11:59
  TRACK 07 AUDIO
    TITLE "3:cjc173_1061"
    INDEX 01 00:12:31
  TRACK 08 AUDIO
    TITLE "0:"
    INDEX 01 00:13:36
  TRACK 09 AUDIO
    TITLE "4:cjc173_1062"
    INDEX 01 00:13:62
  TRACK 10 AUDIO
    TITLE "0:"
    INDEX 01 00:16:33
  TRACK 11 AUDIO
    TITLE "5:cjc173_1063"
    INDEX 01 00:16:52
  TRACK 12 AUDIO
    TITLE "0:"
    INDEX 01 00:21:10
  TRACK 13 AUDIO
    TITLE "3:cjc173_1064"
    INDEX 01 00:21:58
  TRACK 14 AUDIO
    TITLE "0:"
    INDEX 01 00:22:65
  TRACK 15 AUDIO
    TITLE "4:cjc173_1065"
    INDEX 01 00:23:11
  TRACK 16 AUDIO
    TITLE "0:"
    INDEX 01 00:25:46
  TRACK 17 AUDIO
    TITLE "5:cjc173_1066"
    INDEX 01 00:25:63
  TRACK 18 AUDIO
    TITLE "0:"
    INDEX 01 00:30:37
  TRACK 19 AUDIO
    TITLE "3:cjc173_1067"
    INDEX 01 00:31:07
  TRACK 20 AUDIO
    TITLE "0:"
    INDEX 01 00:32:18
  TRACK 21 AUDIO
    TITLE "4:cjc173_1068"
    INDEX 01 00:32:42
  TRACK 22 AUDIO
    TITLE "0:"
    INDEX 01 00:34:60
  TRACK 23 AUDIO
    TITLE "5:cjc173_1069"
    INDEX 01 00:35:05
  TRACK 24 AUDIO
    TITLE "0:"
    INDEX 01 00:40:39
  TRACK 25 AUDIO
    TITLE "3:cjc173_1070"
    INDEX 01 00:41:09
  TRACK 26 AUDIO
    TITLE "0:"
    INDEX 01 00:42:30
  TRACK 27 AUDIO
    TITLE "4:cjc173_1071"
    INDEX 01 00:42:54
  TRACK 28 AUDIO
    TITLE "0:"
    INDEX 01 00:46:40
  TRACK 29 AUDIO
    TITLE "5:cjc173_1072"
    INDEX 01 00:46:59
  TRACK 30 AUDIO
    TITLE "0:"
    INDEX 01 00:51:72
  TRACK 31 AUDIO
    TITLE "3:cjc173_1073"
    INDEX 01 00:52:44
  TRACK 32 AUDIO
    TITLE "0:"
    INDEX 01 00:53:63
  TRACK 33 AUDIO
    TITLE "4:cjc173_1074"
    INDEX 01 00:54:08
  TRACK 34 AUDIO
    TITLE "0:"
    INDEX 01 00:56:15
  TRACK 35 AUDIO
    TITLE "5:cjc173_1075"
    INDEX 01 00:56:34
  TRACK 36 AUDIO
    TITLE "0:"
    INDEX 01 01:02:17
  TRACK 37 AUDIO
    TITLE "3:cjc173_1076"
    INDEX 01 01:02:62
  TRACK 38 AUDIO
    TITLE "0:"
    INDEX 01 01:04:01
  TRACK 39 AUDIO
    TITLE "4:cjc173_1077"
    INDEX 01 01:04:20
  TRACK 40 AUDIO
    TITLE "0:"
    INDEX 01 01:06:37
  TRACK 41 AUDIO
    TITLE "5:cjc173_1078"
    INDEX 01 01:06:58
  TRACK 42 AUDIO
    TITLE "0:"
    INDEX 01 01:11:42
  TRACK 43 AUDIO
    TITLE "3:cjc173_1079"
    INDEX 01 01:12:14
  TRACK 44 AUDIO
    TITLE "0:"
    INDEX 01 01:13:19
  TRACK 45 AUDIO
    TITLE "4:cjc173_1080"
    INDEX 01 01:13:43
  TRACK 46 AUDIO
    TITLE "0:"
    INDEX 01 01:15:69
  TRACK 47 AUDIO
    TITLE "5:cjc173_1081"
    INDEX 01 01:16:15
  TRACK 48 AUDIO
    TITLE "0:"
    INDEX 01 01:21:17
  TRACK 49 AUDIO
    TITLE "3:cjc173_1082"
    INDEX 01 01:21:62
  TRACK 50 AUDIO
    TITLE "0:"
    INDEX 01 01:22:71
  TRACK 51 AUDIO
    TITLE "4:cjc173_1083"
    INDEX 01 01:23:16
  TRACK 52 AUDIO
    TITLE "0:"
    INDEX 01 01:25:42
  TRACK 53 AUDIO
    TITLE "5:cjc173_1084"
    INDEX 01 01:25:61
  TRACK 54 AUDIO
    TITLE "0:"
    INDEX 01 01:29:47
  TRACK 55 AUDIO
    TITLE "3:cjc173_1085"
    INDEX 01 01:30:18
  TRACK 56 AUDIO
    TITLE "0:"
    INDEX 01 01:31:37
  TRACK 57 AUDIO
    TITLE "4:cjc173_1086"
    INDEX 01 01:31:58
  TRACK 58 AUDIO
    TITLE "0:"
    INDEX 01 01:36:53
  TRACK 59 AUDIO
    TITLE "5:cjc173_1087"
    INDEX 01 01:36:73
  TRACK 60 AUDIO
    TITLE "0:"
    INDEX 01 01:42:19
